<svg width="200" height="180" viewBox="0 0 200 180" fill="none" xmlns="http://www.w3.org/2000/svg">
<path d="M150 60H120V0H80V60H50L100 110L150 60ZM193.38 125.32C191.28 123.08 177.27 108.09 173.27 104.18C170.467 101.493 166.733 99.9951 162.85 100H145.28L175.92 129.94H140.48C139.998 129.931 139.523 130.049 139.102 130.283C138.68 130.516 138.328 130.857 138.08 131.27L129.92 150H70.08L61.92 131.27C61.6707 130.858 61.318 130.519 60.897 130.286C60.476 130.052 60.0013 129.933 59.52 129.94H24.08L54.71 100H37.15C33.18 100 29.39 101.59 26.73 104.18C22.73 108.1 8.71999 123.09 6.61999 125.32C1.72999 130.53 -0.960007 134.68 0.319993 139.81L5.92999 170.55C7.20999 175.69 12.84 179.91 18.45 179.91H181.57C187.18 179.91 192.81 175.69 194.09 170.55L199.7 139.81C200.96 134.68 198.28 130.53 193.38 125.32V125.32Z" fill="#BDD048"/>
</svg>
