<svg width="200" height="200" viewBox="0 0 200 200" fill="none" xmlns="http://www.w3.org/2000/svg">
<path d="M61.6667 100C61.6667 121.667 78.8889 138.889 100.556 138.889C122.222 138.889 139.444 121.667 139.444 100C139.444 78.3333 122.222 61.1111 100.556 61.1111C78.8889 61.1111 61.6667 78.3333 61.6667 100V100ZM128.333 100C128.333 115.556 116.111 127.778 100.556 127.778C85 127.778 72.7778 115.556 72.7778 100C72.7778 84.4444 85 72.2222 100.556 72.2222C116.111 72.2222 128.333 84.4444 128.333 100Z" fill="#7E6A6F"/>
<path d="M182.222 81.6666L166.667 76.6666L166.111 75C161.667 75 157.222 73.8889 152.778 72.7778C154.444 76.1111 156.111 80 157.222 83.3333L157.778 86.1111L177.778 92.2222V107.778L157.778 113.889L157.222 116.667L152.222 128.333L150.556 131.111L160.556 149.444L149.444 160.556L131.111 150.556L128.333 152.222C124.444 154.444 120.556 156.111 116.667 157.222L113.889 157.778L107.778 177.778H92.2222L86.1111 157.778L83.3333 157.222L71.6667 152.222L68.8889 150.556L50.5556 160.556L39.4444 149.444L49.4444 131.111L47.7778 128.333C45.5556 124.444 43.8889 120.556 42.7778 116.667L42.2222 113.889L22.2222 107.778V92.2222L41.1111 86.6666L42.2222 83.8889C43.3333 79.4444 45 75.5555 47.2222 71.6666L48.8889 68.8889L39.4444 50.5555L50.5556 39.4444L68.3333 49.4444L71.1111 47.7778C75 45.5555 78.8889 43.8889 83.3333 42.7777L86.1111 41.6666L92.2222 22.2222H107.778L113.889 41.6666L116.667 42.7777C120.556 43.8889 123.889 45.5555 127.222 47.2222C125.556 42.7777 125 38.3333 125 33.3333L122.778 32.2222L117.778 16.6666C116.667 13.8889 113.333 11.1111 109.444 11.1111H90.5556C86.6667 11.1111 83.3333 13.8889 82.7778 17.7778L77.7778 33.3333C74.4444 33.8889 71.6667 35 68.8889 36.6666L54.4444 28.8889C51.1111 27.2222 46.6667 27.7778 43.8889 30.5555L30.5556 43.8889C27.7778 46.6666 27.2222 51.1111 28.8889 54.4444L36.1111 68.3333C35 71.1111 33.8889 74.4444 32.7778 77.2222L17.2222 82.2222C13.8889 83.3333 11.1111 86.6666 11.1111 90.5555V109.444C11.1111 113.333 13.8889 116.667 17.7778 117.778L33.3333 122.778L36.6667 131.111L28.8889 145.556C27.2222 148.889 27.7778 153.333 30.5556 156.111L43.8889 169.444C46.6667 172.222 51.1111 172.778 54.4444 171.111L68.8889 163.333L77.2222 166.667L82.2222 182.778C83.3333 186.111 86.6667 188.889 90.5556 188.889H109.444C113.333 188.889 116.667 186.111 117.778 182.778L122.778 166.667L131.111 163.333L145.556 171.111C148.889 172.778 153.333 172.222 156.111 169.444L169.444 156.111C172.222 153.333 172.778 148.889 171.111 145.556L163.333 131.111L166.667 122.778L182.778 117.778C186.111 116.667 188.889 113.333 188.889 109.444V90.5555C188.889 86.6666 186.111 82.7777 182.222 81.6666V81.6666Z" fill="#7E6A6F"/>
<path d="M166.667 61.1111C182.008 61.1111 194.444 48.6746 194.444 33.3333C194.444 17.9921 182.008 5.55554 166.667 5.55554C151.325 5.55554 138.889 17.9921 138.889 33.3333C138.889 48.6746 151.325 61.1111 166.667 61.1111Z" fill="#7E6A6F"/>
</svg>
