<svg width="200" height="200" viewBox="0 0 200 200" fill="none" xmlns="http://www.w3.org/2000/svg">
<g clip-path="url(#clip0_211_21)">
<path d="M200 28.5715V46.4285C200 62.1652 155.208 75 100 75C44.7915 75 0 62.1652 0 46.4285V28.5715C0 12.8348 44.7915 0 100 0C155.208 0 200 12.8348 200 28.5715ZM200 68.75V108.929C200 124.665 155.208 137.5 100 137.5C44.7915 137.5 0 124.665 0 108.929V68.75C21.4844 81.6965 60.8071 87.7234 100 87.7234C139.193 87.7234 178.515 81.6965 200 68.75ZM200 131.25V171.429C200 187.165 155.208 200 100 200C44.7915 200 0 187.165 0 171.429V131.25C21.4844 144.196 60.8071 150.223 100 150.223C139.193 150.223 178.515 144.196 200 131.25Z" fill="#7BA5E3"/>
</g>
<defs>
<clipPath id="clip0_211_21">
<rect width="200" height="200" fill="white"/>
</clipPath>
</defs>
</svg>
