<svg width="200" height="200" viewBox="0 0 200 200" fill="none" xmlns="http://www.w3.org/2000/svg">
<path d="M60 0C54.6957 0 49.6086 2.10714 45.8579 5.85786C42.1071 9.60859 40 14.6957 40 20V113.333C40 118.638 42.1071 123.725 45.8579 127.475C49.6086 131.226 54.6957 133.333 60 133.333H180C185.304 133.333 190.391 131.226 194.142 127.475C197.893 123.725 200 118.638 200 113.333V46.6667C200 41.3623 197.893 36.2753 194.142 32.5245C190.391 28.7738 185.304 26.6667 180 26.6667H129.427L102.76 0H60Z" fill="#DA7480"/>
<path d="M160 146.667H60C51.1594 146.667 42.681 143.155 36.4298 136.904C30.1786 130.652 26.6667 122.174 26.6667 113.333V66.6666H20C14.6957 66.6666 9.60859 68.7738 5.85786 72.5245C2.10714 76.2752 0 81.3623 0 86.6666L0 180C0 185.304 2.10714 190.391 5.85786 194.142C9.60859 197.893 14.6957 200 20 200H140C145.304 200 150.391 197.893 154.142 194.142C157.893 190.391 160 185.304 160 180V146.667Z" fill="#DA7480"/>
</svg>
