<svg width="147" height="173" viewBox="0 0 147 173" fill="none" xmlns="http://www.w3.org/2000/svg">
<path d="M144.266 34.4844L113.016 3.23438C111.239 1.49894 108.859 0.518976 106.375 0.5H43.875C39.7373 0.520535 35.775 2.17333 32.8491 5.09915C29.9233 8.02496 28.2705 11.9873 28.25 16.125V31.75H15.75C11.6123 31.7705 7.64996 33.4233 4.72415 36.3491C1.79833 39.275 0.145535 43.2373 0.125 47.375V156.75C0.145535 160.888 1.79833 164.85 4.72415 167.776C7.64996 170.702 11.6123 172.354 15.75 172.375H100.125C104.263 172.354 108.225 170.702 111.151 167.776C114.077 164.85 115.729 160.888 115.75 156.75V141.125H131.375C135.513 141.104 139.475 139.452 142.401 136.526C145.327 133.6 146.979 129.638 147 125.5V41.125C146.981 38.6413 146.001 36.2613 144.266 34.4844V34.4844ZM97 153.625H18.875V50.5H71.2188L97 76.2812V153.625ZM128.25 122.375H115.75V72.375C115.731 69.8913 114.751 67.5113 113.016 65.7344L81.7656 34.4844C79.9887 32.7489 77.6087 31.769 75.125 31.75H47V19.25H102.469L128.25 45.0312V122.375ZM84.5 100.5C84.5 102.986 83.5123 105.371 81.7541 107.129C79.996 108.887 77.6114 109.875 75.125 109.875H40.75C38.2636 109.875 35.879 108.887 34.1209 107.129C32.3627 105.371 31.375 102.986 31.375 100.5C31.375 98.0136 32.3627 95.629 34.1209 93.8709C35.879 92.1127 38.2636 91.125 40.75 91.125H75.125C77.6114 91.125 79.996 92.1127 81.7541 93.8709C83.5123 95.629 84.5 98.0136 84.5 100.5ZM84.5 131.75C84.5 134.236 83.5123 136.621 81.7541 138.379C79.996 140.137 77.6114 141.125 75.125 141.125H40.75C38.2636 141.125 35.879 140.137 34.1209 138.379C32.3627 136.621 31.375 134.236 31.375 131.75C31.375 129.264 32.3627 126.879 34.1209 125.121C35.879 123.363 38.2636 122.375 40.75 122.375H75.125C77.6114 122.375 79.996 123.363 81.7541 125.121C83.5123 126.879 84.5 129.264 84.5 131.75Z" fill="#C16BAE"/>
</svg>
