<svg width="150" height="168" viewBox="0 0 150 168" fill="none" xmlns="http://www.w3.org/2000/svg">
<path d="M133.333 0.666687H16.6667C12.2464 0.666687 8.00716 2.42263 4.88155 5.54824C1.75595 8.67385 0 12.9131 0 17.3334V125.667C0 130.087 1.75595 134.326 4.88155 137.452C8.00716 140.577 12.2464 142.333 16.6667 142.333H50L75 167.333L100 142.333H133.333C137.754 142.333 141.993 140.577 145.118 137.452C148.244 134.326 150 130.087 150 125.667V17.3334C150 12.9131 148.244 8.67385 145.118 5.54824C141.993 2.42263 137.754 0.666687 133.333 0.666687ZM75 25.6667C89.3917 25.6667 100 36.2667 100 50.6667C100 65.0667 89.3917 75.6667 75 75.6667C60.6167 75.6667 50 65.0667 50 50.6667C50 36.2667 60.6167 25.6667 75 25.6667ZM34.8083 117.333C39.4583 102.975 55.6083 92.3334 75 92.3334C94.3917 92.3334 110.55 102.975 115.192 117.333H34.8083Z" fill="#CE81F2"/>
</svg>
