<svg width="83" height="22" viewBox="0 0 83 22" fill="none" xmlns="http://www.w3.org/2000/svg">
<path d="M7.48535 8.91504C7.49512 8.9541 7.50977 9.02246 7.5293 9.12012C7.54883 9.20801 7.57324 9.31055 7.60254 9.42773C7.63184 9.53516 7.65625 9.6377 7.67578 9.73535C7.70508 9.82324 7.72949 9.88672 7.74902 9.92578C7.78809 10.0332 7.84668 10.1504 7.9248 10.2773C8.0127 10.3945 8.12012 10.4531 8.24707 10.4531C8.45215 10.4531 8.68164 10.4385 8.93555 10.4092C9.18945 10.3799 9.43848 10.3359 9.68262 10.2773C9.93652 10.209 10.1758 10.126 10.4004 10.0283C10.6348 9.93066 10.8398 9.81348 11.0156 9.67676C11.0254 9.66699 11.0547 9.6377 11.1035 9.58887C11.1621 9.53027 11.2207 9.47168 11.2793 9.41309C11.3379 9.34473 11.3916 9.28613 11.4404 9.2373C11.499 9.18848 11.5332 9.16406 11.543 9.16406C11.5625 9.1543 11.5967 9.13965 11.6455 9.12012C11.6943 9.09082 11.748 9.06152 11.8066 9.03223C11.8652 9.00293 11.9141 8.97852 11.9531 8.95898C12.002 8.93945 12.0361 8.9248 12.0557 8.91504C12.0654 8.91504 12.0801 8.90527 12.0996 8.88574C12.1191 8.86621 12.1289 8.85156 12.1289 8.8418C12.168 8.7832 12.2217 8.70996 12.29 8.62207C12.3584 8.52441 12.4268 8.43164 12.4951 8.34375C12.5732 8.24609 12.6367 8.16309 12.6855 8.09473C12.7441 8.02637 12.7783 7.9873 12.7881 7.97754C12.9541 7.68457 13.0566 7.38672 13.0957 7.08398C13.1348 6.77148 13.208 6.46875 13.3154 6.17578C13.3545 6.13672 13.3936 6.07812 13.4326 6C13.4717 5.91211 13.4912 5.80957 13.4912 5.69238C13.4912 5.65332 13.4766 5.57031 13.4473 5.44336C13.4277 5.30664 13.418 5.22852 13.418 5.20898C13.3691 4.90625 13.3252 4.6084 13.2861 4.31543C13.2568 4.02246 13.1641 3.72949 13.0078 3.43652C12.998 3.39746 12.9639 3.33398 12.9053 3.24609C12.8467 3.14844 12.7783 3.0459 12.7002 2.93848C12.6318 2.83105 12.5635 2.72852 12.4951 2.63086C12.4268 2.52344 12.3779 2.44531 12.3486 2.39648C12.2803 2.35742 12.2412 2.32324 12.2314 2.29395L12.1436 2.26465C12.124 2.26465 12.1045 2.25488 12.085 2.23535C12.0752 2.22559 12.0654 2.2207 12.0557 2.2207C11.9287 2.14258 11.8164 2.0791 11.7188 2.03027C11.6309 1.97168 11.5479 1.92285 11.4697 1.88379C11.3916 1.84473 11.3037 1.81055 11.2061 1.78125C11.1182 1.74219 11.0107 1.70313 10.8838 1.66406C10.5127 1.54688 10.1758 1.44434 9.87305 1.35645C9.57031 1.25879 9.23828 1.20996 8.87695 1.20996C8.75 1.20996 8.59863 1.21484 8.42285 1.22461C8.25684 1.23438 8.12988 1.27344 8.04199 1.3418C8.0127 1.35156 7.97363 1.38086 7.9248 1.42969C7.88574 1.47852 7.8418 1.53711 7.79297 1.60547C7.75391 1.66406 7.71484 1.72266 7.67578 1.78125C7.64648 1.83008 7.62695 1.86914 7.61719 1.89844C7.59766 1.94727 7.57813 2.03516 7.55859 2.16211C7.54883 2.2793 7.53906 2.40625 7.5293 2.54297C7.51953 2.67969 7.50977 2.81152 7.5 2.93848C7.49023 3.06543 7.48535 3.14844 7.48535 3.1875V6.07324V8.91504ZM0.952148 20.5752C0.952148 20.5557 0.961914 20.5166 0.981445 20.458C0.991211 20.4287 1.00586 20.4043 1.02539 20.3848C1.03516 20.3652 1.05957 20.3359 1.09863 20.2969C1.1377 20.2578 1.17676 20.2236 1.21582 20.1943C1.26465 20.1553 1.30859 20.1211 1.34766 20.0918C1.38672 20.0527 1.41602 20.0283 1.43555 20.0186C1.49414 20.0186 1.58691 20.0137 1.71387 20.0039C1.84082 19.9844 1.97266 19.9648 2.10938 19.9453C2.24609 19.916 2.37305 19.8916 2.49023 19.8721C2.60742 19.8525 2.68555 19.8379 2.72461 19.8281C2.88086 19.8086 3.03711 19.7988 3.19336 19.7988C3.34961 19.7988 3.50098 19.7842 3.64746 19.7549C3.79395 19.7256 3.92578 19.6768 4.04297 19.6084C4.16992 19.54 4.27734 19.4277 4.36523 19.2715V18.4951C4.36523 18.0264 4.37988 17.5674 4.40918 17.1182C4.43848 16.6592 4.4873 16.1953 4.55566 15.7266C4.60449 15.6777 4.62891 15.624 4.62891 15.5654C4.63867 15.4971 4.64355 15.4238 4.64355 15.3457V15.1992C4.64355 15.1797 4.63867 15.1357 4.62891 15.0674C4.61914 14.999 4.60938 14.9307 4.59961 14.8623C4.58984 14.7842 4.58008 14.7158 4.57031 14.6572C4.56055 14.5889 4.55566 14.5498 4.55566 14.54V13.2949V12.0352C4.5752 11.9863 4.59473 11.9277 4.61426 11.8594C4.63379 11.791 4.64355 11.7471 4.64355 11.7275C4.64355 11.6787 4.63379 11.6006 4.61426 11.4932C4.59473 11.376 4.5752 11.3076 4.55566 11.2881V8.8418V6.4248C4.55566 6.36621 4.56055 6.23926 4.57031 6.04395C4.58008 5.84863 4.58984 5.64355 4.59961 5.42871C4.60938 5.2041 4.61914 4.99902 4.62891 4.81348C4.63867 4.61816 4.64355 4.49609 4.64355 4.44727C4.64355 4.4375 4.63867 4.4082 4.62891 4.35938C4.61914 4.30078 4.60938 4.24219 4.59961 4.18359C4.58984 4.11523 4.58008 4.05664 4.57031 4.00781C4.56055 3.94922 4.55566 3.91016 4.55566 3.89062C4.55566 3.83203 4.55078 3.76855 4.54102 3.7002C4.53125 3.62207 4.52637 3.55371 4.52637 3.49512C4.52637 3.39746 4.53125 3.30957 4.54102 3.23145C4.55078 3.14355 4.55566 3.06055 4.55566 2.98242C4.55566 2.72852 4.52148 2.48926 4.45312 2.26465C4.38477 2.04004 4.22363 1.83984 3.96973 1.66406H2.87109C2.83203 1.66406 2.76855 1.65918 2.68066 1.64941C2.59277 1.63965 2.5 1.62988 2.40234 1.62012C2.30469 1.61035 2.20703 1.60059 2.10938 1.59082C2.02148 1.57129 1.95801 1.55176 1.91895 1.53223C1.83105 1.52246 1.7334 1.5127 1.62598 1.50293C1.52832 1.4834 1.43555 1.45898 1.34766 1.42969C1.25977 1.40039 1.18164 1.35645 1.11328 1.29785C1.05469 1.23926 1.02539 1.15625 1.02539 1.04883C1.02539 0.960938 1.05469 0.887695 1.11328 0.829102C1.18164 0.770508 1.25977 0.72168 1.34766 0.682617C1.43555 0.643555 1.52832 0.619141 1.62598 0.609375C1.7334 0.589844 1.83105 0.580078 1.91895 0.580078H2.97363C3.07129 0.580078 3.21777 0.575195 3.41309 0.56543C3.61816 0.545898 3.82812 0.53125 4.04297 0.521484C4.25781 0.501953 4.45801 0.487305 4.64355 0.477539C4.8291 0.458008 4.95117 0.448242 5.00977 0.448242C5.00977 0.438477 5.0293 0.433594 5.06836 0.433594C5.11719 0.423828 5.16113 0.418945 5.2002 0.418945C5.24902 0.40918 5.29297 0.404297 5.33203 0.404297C5.38086 0.404297 5.40527 0.404297 5.40527 0.404297C5.4541 0.404297 5.53711 0.40918 5.6543 0.418945C5.77148 0.418945 5.84961 0.428711 5.88867 0.448242C5.95703 0.487305 6.05469 0.511719 6.18164 0.521484C6.30859 0.521484 6.38184 0.521484 6.40137 0.521484C6.4209 0.521484 6.47461 0.511719 6.5625 0.492188C6.66016 0.462891 6.71387 0.448242 6.72363 0.448242C6.7334 0.438477 6.7627 0.433594 6.81152 0.433594C6.87012 0.423828 6.93359 0.414063 7.00195 0.404297C7.07031 0.394531 7.13379 0.389648 7.19238 0.389648C7.26074 0.379883 7.30957 0.375 7.33887 0.375C7.6416 0.375 7.9248 0.384766 8.18848 0.404297C8.45215 0.414063 8.75 0.418945 9.08203 0.418945C9.15039 0.418945 9.22852 0.423828 9.31641 0.433594C9.4043 0.433594 9.4873 0.438477 9.56543 0.448242C9.64355 0.458008 9.70703 0.467773 9.75586 0.477539C9.81445 0.477539 9.85352 0.477539 9.87305 0.477539C9.89258 0.477539 9.95117 0.472656 10.0488 0.462891C10.1465 0.453125 10.2051 0.448242 10.2246 0.448242C10.2637 0.448242 10.3027 0.443359 10.3418 0.433594C10.3711 0.433594 10.4004 0.433594 10.4297 0.433594C10.459 0.423828 10.4834 0.418945 10.5029 0.418945C10.5322 0.418945 10.5811 0.423828 10.6494 0.433594C10.7178 0.443359 10.7715 0.448242 10.8105 0.448242C10.8887 0.467773 11.0205 0.492188 11.2061 0.521484C11.3916 0.541016 11.582 0.56543 11.7773 0.594727C11.9824 0.624023 12.1729 0.648438 12.3486 0.667969C12.5244 0.6875 12.6367 0.697266 12.6855 0.697266C13.2031 0.775391 13.6475 0.931641 14.0186 1.16602C14.3994 1.39062 14.79 1.66895 15.1904 2.00098C15.3076 2.08887 15.4297 2.25 15.5566 2.48438C15.6934 2.70898 15.8154 2.95801 15.9229 3.23145C16.04 3.49512 16.1328 3.75879 16.2012 4.02246C16.2695 4.27637 16.3037 4.47656 16.3037 4.62305V4.90137C16.2549 5.42871 16.2109 5.96094 16.1719 6.49805C16.1426 7.03516 16.0449 7.55273 15.8789 8.05078C15.8594 8.05078 15.8203 8.09473 15.7617 8.18262C15.7129 8.26074 15.6689 8.31934 15.6299 8.3584C15.4932 8.55371 15.3613 8.73926 15.2344 8.91504C15.1172 9.08105 14.9902 9.24219 14.8535 9.39844C14.7266 9.55469 14.5801 9.70605 14.4141 9.85254C14.2578 9.98926 14.0771 10.1162 13.8721 10.2334C13.8135 10.2725 13.7207 10.3213 13.5938 10.3799C13.4668 10.4385 13.335 10.502 13.1982 10.5703C13.0615 10.6289 12.9395 10.6875 12.832 10.7461C12.7344 10.8047 12.6855 10.8535 12.6855 10.8926V10.9365C13.2031 11.3662 13.6377 11.8496 13.9893 12.3867C14.3408 12.9141 14.707 13.4463 15.0879 13.9834C15.0879 14.0029 15.1172 14.042 15.1758 14.1006C15.2441 14.1592 15.293 14.1885 15.3223 14.1885C15.3418 14.2178 15.3711 14.2666 15.4102 14.335C15.459 14.3936 15.5029 14.4521 15.542 14.5107C15.5908 14.5693 15.6348 14.623 15.6738 14.6719C15.7129 14.7207 15.7373 14.7451 15.7471 14.7451C15.7764 14.7939 15.8301 14.8916 15.9082 15.0381C15.9961 15.1846 16.0889 15.3457 16.1865 15.5215C16.2842 15.6875 16.3721 15.8438 16.4502 15.9902C16.5381 16.127 16.5918 16.2148 16.6113 16.2539C16.748 16.498 16.8994 16.6982 17.0654 16.8545C17.2412 17.001 17.4219 17.1768 17.6074 17.3818C17.7148 17.5479 17.8076 17.7236 17.8857 17.9092C17.9639 18.0947 18.0469 18.2559 18.1348 18.3926C18.2715 18.6367 18.4473 18.8516 18.6621 19.0371C18.877 19.2227 19.0967 19.4131 19.3213 19.6084C19.4092 19.6865 19.5801 19.7305 19.834 19.7402C20.0977 19.75 20.3613 19.7695 20.625 19.7988C20.8984 19.8184 21.1426 19.877 21.3574 19.9746C21.5723 20.0625 21.6797 20.2334 21.6797 20.4873C21.6797 20.6436 21.6113 20.79 21.4746 20.9268C21.3477 21.0635 21.1963 21.1318 21.0205 21.1318C20.5518 21.1318 20.0781 21.0977 19.5996 21.0293C19.1309 20.9609 18.6426 20.9268 18.1348 20.9268H17.9297C17.9004 20.9268 17.8271 20.9316 17.71 20.9414C17.6025 20.9512 17.4805 20.9609 17.3438 20.9707C17.207 20.9707 17.0801 20.9756 16.9629 20.9854C16.8457 20.9951 16.7725 21 16.7432 21C16.6748 21.0098 16.5137 21.0244 16.2598 21.0439C16.0156 21.0635 15.752 21.083 15.4688 21.1025C15.1855 21.1221 14.917 21.1367 14.6631 21.1465C14.4189 21.166 14.2676 21.1758 14.209 21.1758C14.1895 21.1758 14.1553 21.1807 14.1064 21.1904C14.0576 21.21 13.999 21.2295 13.9307 21.249C13.8721 21.2686 13.8135 21.2832 13.7549 21.293C13.7061 21.3125 13.6768 21.3223 13.667 21.3223H13.1689C12.9932 21.3223 12.8271 21.2686 12.6709 21.1611C12.5244 21.0635 12.4512 20.8926 12.4512 20.6484C12.4512 20.6094 12.4512 20.5557 12.4512 20.4873C12.4609 20.4092 12.4756 20.3359 12.4951 20.2676C12.5146 20.1992 12.5439 20.1406 12.583 20.0918C12.6318 20.043 12.7002 20.0186 12.7881 20.0186H14.7803C14.8291 20.0186 14.8584 19.9795 14.8682 19.9014C14.8779 19.8135 14.8828 19.75 14.8828 19.7109C14.8828 19.4863 14.7998 19.2764 14.6338 19.0811C14.4775 18.8857 14.3359 18.6953 14.209 18.5098C14.0723 18.2949 13.9453 18.0752 13.8281 17.8506C13.7109 17.626 13.5742 17.4014 13.418 17.1768C13.252 16.8643 13.0469 16.5566 12.8027 16.2539C12.5586 15.9512 12.334 15.6338 12.1289 15.3018C12.1094 15.2725 12.0654 15.2041 11.9971 15.0967C11.9385 14.9893 11.8701 14.877 11.792 14.7598C11.7139 14.6328 11.6406 14.5156 11.5723 14.4082C11.5039 14.291 11.46 14.2178 11.4404 14.1885C11.3818 14.1104 11.2744 13.9785 11.1182 13.793C10.9619 13.6074 10.7959 13.4121 10.6201 13.207C10.4541 12.9922 10.293 12.7969 10.1367 12.6211C9.99023 12.4355 9.88281 12.3135 9.81445 12.2549C9.80469 12.2158 9.78516 12.1719 9.75586 12.123C9.73633 12.0742 9.70703 12.0449 9.66797 12.0352C9.47266 11.791 9.2627 11.5762 9.03809 11.3906C8.82324 11.2051 8.5498 11.1123 8.21777 11.1123H8.04199C8.03223 11.1611 8.00781 11.2246 7.96875 11.3027C7.92969 11.3809 7.88574 11.4639 7.83691 11.5518C7.79785 11.6299 7.75391 11.708 7.70508 11.7861C7.66602 11.8545 7.63672 11.9033 7.61719 11.9326V12.0059C7.61719 12.1719 7.63672 12.3232 7.67578 12.46C7.72461 12.5869 7.74902 12.7383 7.74902 12.9141C7.74902 13.0703 7.74414 13.2217 7.73438 13.3682C7.72461 13.5146 7.68555 13.6855 7.61719 13.8809V18.8174C7.61719 19.1104 7.66602 19.3691 7.76367 19.5938C7.87109 19.8184 8.08594 19.9307 8.4082 19.9307C8.66211 19.9307 8.90625 19.916 9.14062 19.8867C9.375 19.8477 9.61914 19.8281 9.87305 19.8281C10.0098 19.8281 10.1416 19.8818 10.2686 19.9893C10.3955 20.0869 10.459 20.2188 10.459 20.3848C10.459 20.5703 10.4248 20.7412 10.3564 20.8975C10.2881 21.0537 10.1416 21.1318 9.91699 21.1318C9.89746 21.1318 9.85352 21.127 9.78516 21.1172C9.72656 21.1074 9.6582 21.0928 9.58008 21.0732C9.51172 21.0635 9.44336 21.0488 9.375 21.0293C9.31641 21.0195 9.27734 21.0098 9.25781 21H8.80371C8.6084 21 8.41309 21.0195 8.21777 21.0586C8.03223 21.1074 7.83203 21.1318 7.61719 21.1318C7.30469 21.1318 6.99707 21.1074 6.69434 21.0586C6.40137 21.0195 6.09863 21 5.78613 21C5.59082 21 5.40527 21.0195 5.22949 21.0586C5.05371 21.1074 4.86816 21.1318 4.67285 21.1318H4.55566C4.49707 21.1318 4.37988 21.127 4.2041 21.1172C4.02832 21.1074 3.83789 21.0928 3.63281 21.0732C3.4375 21.0635 3.25195 21.0488 3.07617 21.0293C2.90039 21.0195 2.7832 21.0098 2.72461 21C2.68555 21 2.57324 21.0049 2.3877 21.0146C2.21191 21.0244 2.0459 21.0293 1.88965 21.0293C1.80176 21.0293 1.72363 21.0293 1.65527 21.0293C1.59668 21.0293 1.55762 21.0195 1.53809 21C1.51855 21 1.45508 20.9951 1.34766 20.9854C1.25 20.9658 1.17676 20.9463 1.12793 20.9268C1.04004 20.8975 0.986328 20.8486 0.966797 20.7803C0.957031 20.7021 0.952148 20.6338 0.952148 20.5752ZM22.0605 21C22.0605 20.9609 22.0312 20.9072 21.9727 20.8389C21.9238 20.7607 21.8945 20.6973 21.8848 20.6484V20.5898V20.5752C21.9043 20.5361 21.9482 20.4775 22.0166 20.3994C22.085 20.3213 22.1582 20.2432 22.2363 20.165C22.3242 20.0771 22.4023 19.999 22.4707 19.9307C22.5488 19.8623 22.6025 19.8135 22.6318 19.7842C22.6514 19.7646 22.7148 19.7451 22.8223 19.7256C22.9395 19.6963 23.0225 19.6816 23.0713 19.6816H24.1113C24.1406 19.6816 24.1797 19.6768 24.2285 19.667C24.2871 19.6475 24.3408 19.6328 24.3896 19.623C24.4482 19.6035 24.4971 19.584 24.5361 19.5645C24.585 19.5449 24.6094 19.5352 24.6094 19.5352C24.7461 19.4668 24.8242 19.3594 24.8438 19.2129C24.873 19.0566 24.8877 18.9102 24.8877 18.7734V18.5391C24.8877 18.1973 24.8779 17.875 24.8584 17.5723C24.8486 17.2598 24.8438 16.9326 24.8438 16.5908V16.4883C24.8438 16.459 24.8486 16.4053 24.8584 16.3271C24.8682 16.249 24.8779 16.166 24.8877 16.0781C24.9072 15.9805 24.9268 15.8926 24.9463 15.8145C24.9658 15.7363 24.9805 15.6826 24.9902 15.6533V9.2666C24.9902 9.07129 24.9561 8.91504 24.8877 8.79785C24.8193 8.68066 24.7314 8.59277 24.624 8.53418C24.5166 8.46582 24.3896 8.42188 24.2432 8.40234C24.1064 8.38281 23.96 8.37305 23.8037 8.37305H23.2031C22.9297 8.37305 22.7002 8.33887 22.5146 8.27051C22.3291 8.20215 22.2363 8.03613 22.2363 7.77246C22.2363 7.68457 22.2363 7.60645 22.2363 7.53809C22.2461 7.46973 22.2705 7.37695 22.3096 7.25977C22.7783 7.2793 23.2373 7.26465 23.6865 7.21582C24.1357 7.16699 24.5898 7.14258 25.0488 7.14258H25.4297C25.4688 7.15234 25.5469 7.16211 25.6641 7.17188C25.791 7.18164 25.918 7.19141 26.0449 7.20117C26.1816 7.21094 26.3086 7.2207 26.4258 7.23047C26.543 7.24023 26.626 7.25 26.6748 7.25977H33.5596C33.8525 7.25977 34.0625 7.33789 34.1895 7.49414C34.3164 7.64062 34.4092 7.82617 34.4678 8.05078V8.88574V9.75C34.4678 9.80859 34.458 9.91602 34.4385 10.0723C34.4189 10.2188 34.3945 10.3799 34.3652 10.5557C34.3457 10.7217 34.3213 10.8877 34.292 11.0537C34.2725 11.21 34.2578 11.3223 34.248 11.3906C34.2285 11.4199 34.1943 11.4639 34.1455 11.5225C34.0967 11.5713 34.0625 11.5957 34.043 11.5957C34.043 11.6152 34.0332 11.625 34.0137 11.625H33.999H33.9551C33.9258 11.625 33.9111 11.6152 33.9111 11.5957C33.7451 11.4785 33.6182 11.3467 33.5303 11.2002C33.4424 11.0439 33.3691 10.8828 33.3105 10.7168C33.252 10.5508 33.1982 10.3848 33.1494 10.2188C33.1006 10.0527 33.0273 9.89648 32.9297 9.75C32.9102 9.71094 32.8467 9.64746 32.7393 9.55957C32.6416 9.46191 32.5879 9.4082 32.5781 9.39844C32.5586 9.37891 32.5146 9.3252 32.4463 9.2373C32.3877 9.14941 32.3193 9.05664 32.2412 8.95898C32.1729 8.85156 32.1045 8.75391 32.0361 8.66602C31.9775 8.57812 31.9385 8.52441 31.9189 8.50488C31.8799 8.41699 31.8359 8.37305 31.7871 8.37305C31.7773 8.37305 31.7432 8.36816 31.6846 8.3584C31.6357 8.34863 31.5771 8.33887 31.5088 8.3291C31.4502 8.30957 31.3916 8.29492 31.333 8.28516C31.2842 8.27539 31.2598 8.26562 31.2598 8.25586C31.2305 8.25586 31.1768 8.24609 31.0986 8.22656C31.0205 8.20703 30.9326 8.1875 30.835 8.16797C30.7471 8.14844 30.6641 8.12891 30.5859 8.10938C30.5078 8.08008 30.459 8.06055 30.4395 8.05078H30.3662C30.3271 8.05078 30.2734 8.06543 30.2051 8.09473C30.1367 8.11426 30.0879 8.12402 30.0586 8.12402H30.0146C29.9854 8.11426 29.9023 8.10449 29.7656 8.09473C29.6387 8.08496 29.4971 8.08008 29.3408 8.08008C29.1846 8.07031 29.0381 8.06543 28.9014 8.06543C28.7744 8.05566 28.6963 8.05078 28.667 8.05078H28.623C28.4473 8.05078 28.3008 8.08496 28.1836 8.15332C28.0664 8.22168 27.9688 8.30957 27.8906 8.41699C27.8223 8.52441 27.7588 8.64648 27.7002 8.7832C27.6514 8.91016 27.6025 9.03711 27.5537 9.16406C27.5439 9.27148 27.5244 9.44727 27.4951 9.69141C27.4756 9.93555 27.4512 10.1943 27.4219 10.4678C27.4023 10.7412 27.3828 11 27.3633 11.2441C27.3438 11.4883 27.334 11.6592 27.334 11.7568V11.874V11.9473C27.334 11.9961 27.3389 12.0791 27.3486 12.1963C27.3584 12.3135 27.3682 12.4404 27.3779 12.5771C27.3877 12.7041 27.3975 12.8311 27.4072 12.958C27.4268 13.0752 27.4414 13.1533 27.4512 13.1924C27.5195 13.2803 27.5977 13.3682 27.6855 13.4561C27.7832 13.5439 27.8857 13.6025 27.9932 13.6318H28.7988C29.1309 13.6318 29.4189 13.627 29.6631 13.6172C29.917 13.6074 30.2197 13.5781 30.5713 13.5293C30.5811 13.5098 30.5957 13.4756 30.6152 13.4268C30.6348 13.3779 30.6592 13.3291 30.6885 13.2803C30.7178 13.2314 30.7422 13.1875 30.7617 13.1484C30.7812 13.1094 30.7959 13.085 30.8057 13.0752C30.8447 13.0068 30.8936 12.9092 30.9521 12.7822C31.0107 12.6455 31.0693 12.5137 31.1279 12.3867C31.1865 12.25 31.2354 12.1328 31.2744 12.0352C31.3232 11.9375 31.3525 11.8838 31.3623 11.874C31.3818 11.835 31.4014 11.752 31.4209 11.625C31.4404 11.4883 31.46 11.4102 31.4795 11.3906C31.5576 11.3027 31.6602 11.2441 31.7871 11.2148C31.9141 11.1855 32.041 11.1709 32.168 11.1709C32.3047 11.1709 32.3877 11.2246 32.417 11.332C32.4561 11.4297 32.4756 11.542 32.4756 11.6689V12.0352V12.2109C32.4756 12.2988 32.4658 12.3867 32.4463 12.4746C32.4268 12.5527 32.3926 12.6309 32.3438 12.709C32.334 12.7969 32.3242 12.9434 32.3145 13.1484C32.3047 13.3535 32.2949 13.5684 32.2852 13.793C32.2754 14.0176 32.2656 14.2324 32.2559 14.4375C32.2461 14.6328 32.2412 14.7695 32.2412 14.8477V15.2285V16.1074C32.2314 16.127 32.2217 16.1709 32.2119 16.2393C32.2021 16.3076 32.1924 16.3857 32.1826 16.4736C32.1826 16.5518 32.1777 16.6299 32.168 16.708C32.1582 16.7861 32.1484 16.8398 32.1387 16.8691C32.0312 16.9473 31.9336 17.0059 31.8457 17.0449C31.7676 17.084 31.6699 17.1035 31.5527 17.1035C31.4746 17.1035 31.4014 17.0742 31.333 17.0156C31.2646 16.9473 31.2012 16.8643 31.1426 16.7666C31.084 16.6689 31.0352 16.5713 30.9961 16.4736C30.957 16.3662 30.9326 16.2686 30.9229 16.1807C30.9131 16.1514 30.8984 16.0879 30.8789 15.9902C30.8691 15.8828 30.8594 15.7705 30.8496 15.6533C30.8398 15.5264 30.8301 15.4092 30.8203 15.3018C30.8105 15.1943 30.8057 15.1162 30.8057 15.0674C30.7764 15.0283 30.7227 14.9941 30.6445 14.9648C30.5762 14.9258 30.5078 14.8867 30.4395 14.8477C30.3809 14.8281 30.2881 14.8037 30.1611 14.7744C30.0342 14.7451 29.8975 14.7207 29.751 14.7012C29.6143 14.6719 29.4824 14.6523 29.3555 14.6426C29.2383 14.623 29.1602 14.6133 29.1211 14.6133C29.0918 14.6133 29.0381 14.6133 28.96 14.6133C28.8916 14.6035 28.8086 14.5986 28.7109 14.5986C28.623 14.5986 28.5352 14.5986 28.4473 14.5986C28.3594 14.5889 28.291 14.584 28.2422 14.584C28.2129 14.584 28.1641 14.5889 28.0957 14.5986C28.0371 14.5986 27.9736 14.5986 27.9053 14.5986C27.8467 14.5986 27.793 14.6035 27.7441 14.6133C27.6953 14.6133 27.666 14.6133 27.6562 14.6133L27.4512 14.8477V15.3457C27.4512 15.9219 27.4316 16.4785 27.3926 17.0156C27.3535 17.543 27.334 18.0947 27.334 18.6709C27.334 18.9639 27.3584 19.1787 27.4072 19.3154C27.4561 19.4521 27.5342 19.5498 27.6416 19.6084C27.749 19.667 27.8857 19.7109 28.0518 19.7402C28.2178 19.7695 28.4229 19.8184 28.667 19.8867C28.6865 19.8867 28.7207 19.9014 28.7695 19.9307C28.8184 19.96 28.8525 19.9893 28.8721 20.0186H30.0146H31.0986C31.1182 20.0186 31.1621 20.0137 31.2305 20.0039C31.2988 19.9844 31.3721 19.9697 31.4502 19.96C31.5283 19.9404 31.5967 19.9258 31.6553 19.916C31.7236 19.8965 31.7676 19.8867 31.7871 19.8867H32.4902H32.7686C32.7881 19.8867 32.8223 19.8721 32.8711 19.8428C32.9199 19.8037 32.9688 19.7646 33.0176 19.7256C33.0762 19.6768 33.125 19.6328 33.1641 19.5938C33.2031 19.5547 33.2275 19.5352 33.2373 19.5352C33.3057 19.5059 33.3594 19.4912 33.3984 19.4912C33.4473 19.4814 33.4863 19.4766 33.5156 19.4766C33.5449 19.4668 33.5742 19.4521 33.6035 19.4326C33.6328 19.4033 33.6621 19.3594 33.6914 19.3008C33.7988 19.1445 33.877 18.9834 33.9258 18.8174C33.9746 18.6514 34.0381 18.4854 34.1162 18.3193C34.1553 18.29 34.2041 18.2314 34.2627 18.1436C34.3213 18.0459 34.3555 17.9824 34.3652 17.9531C34.375 17.9531 34.4043 17.9385 34.4531 17.9092C34.502 17.8701 34.5508 17.8311 34.5996 17.792C34.6484 17.7432 34.6924 17.6992 34.7314 17.6602C34.7705 17.6113 34.7949 17.5771 34.8047 17.5576C34.8145 17.5283 34.834 17.4893 34.8633 17.4404C34.9023 17.3818 34.9414 17.3232 34.9805 17.2646C35.0195 17.1963 35.0537 17.1377 35.083 17.0889C35.1221 17.0303 35.1465 16.9912 35.1562 16.9717C35.1562 16.9619 35.1709 16.9424 35.2002 16.9131C35.2197 16.9033 35.2393 16.8887 35.2588 16.8691C35.2588 16.8496 35.2637 16.8398 35.2734 16.8398H35.3027C35.4492 16.8398 35.5371 16.8984 35.5664 17.0156C35.5957 17.123 35.6104 17.2354 35.6104 17.3525V17.6602C35.6104 17.709 35.6152 17.8262 35.625 18.0117C35.6348 18.1973 35.6396 18.3975 35.6396 18.6123C35.6494 18.8174 35.6592 19.0127 35.6689 19.1982C35.6787 19.3838 35.6836 19.4961 35.6836 19.5352V19.5791C35.6836 19.7061 35.6592 19.8525 35.6104 20.0186C35.5615 20.1748 35.4932 20.3262 35.4053 20.4727C35.3174 20.6191 35.21 20.7412 35.083 20.8389C34.9658 20.9365 34.8389 20.9902 34.7021 21C34.6338 20.9902 34.5068 20.9805 34.3213 20.9707C34.1455 20.9609 33.9551 20.9512 33.75 20.9414C33.5449 20.9316 33.3496 20.9219 33.1641 20.9121C32.9785 20.9023 32.8467 20.8877 32.7686 20.8682H32.4902H32.2412C32.1924 20.8877 32.0801 20.9072 31.9043 20.9268C31.7285 20.9365 31.5381 20.9463 31.333 20.9561C31.1377 20.9658 30.9473 20.9756 30.7617 20.9854C30.5859 20.9951 30.4785 21 30.4395 21H24.8877C24.8584 21.0098 24.8096 21.0195 24.7412 21.0293C24.6826 21.0391 24.6143 21.0439 24.5361 21.0439C24.4678 21.0537 24.3994 21.0586 24.3311 21.0586C24.2627 21.0684 24.2139 21.0732 24.1846 21.0732C24.1846 21.0928 24.1504 21.1025 24.082 21.1025C24.0137 21.1025 23.9502 21.0977 23.8916 21.0879C23.833 21.0781 23.7939 21.0732 23.7744 21.0732C23.7354 21.1025 23.6572 21.1367 23.54 21.1758C23.4229 21.2148 23.3398 21.2344 23.291 21.2344C23.2422 21.2344 23.1592 21.2246 23.042 21.2051C22.9346 21.1855 22.8174 21.1611 22.6904 21.1318C22.5635 21.1123 22.4414 21.0879 22.3242 21.0586C22.207 21.0391 22.1191 21.0195 22.0605 21Z" fill="white"/>
<path d="M38.3643 13.1631C38.3643 13.1436 38.3643 13.0996 38.3643 13.0312C38.374 12.9531 38.3838 12.875 38.3936 12.7969C38.4033 12.709 38.4131 12.6309 38.4229 12.5625C38.4326 12.4941 38.4424 12.4502 38.4521 12.4307C38.5107 12.2158 38.5742 12.0449 38.6426 11.918C38.7207 11.7812 38.7988 11.6152 38.877 11.4199C38.9062 11.4004 38.9355 11.3516 38.9648 11.2734C38.9941 11.1953 39.0137 11.1367 39.0234 11.0977C39.1016 10.8242 39.2139 10.5508 39.3604 10.2773C39.5166 10.0039 39.6924 9.74023 39.8877 9.48633C40.083 9.23242 40.2881 8.99316 40.5029 8.76855C40.7178 8.54395 40.9277 8.34863 41.1328 8.18262C41.1426 8.17285 41.167 8.1582 41.2061 8.13867C41.2549 8.11914 41.3037 8.09961 41.3525 8.08008C41.4014 8.06055 41.4502 8.04102 41.499 8.02148C41.5479 8.00195 41.5771 7.9873 41.5869 7.97754C41.6357 7.94824 41.709 7.89941 41.8066 7.83105C41.9043 7.7627 42.0068 7.69434 42.1143 7.62598C42.2217 7.55762 42.3242 7.49902 42.4219 7.4502C42.5293 7.3916 42.6172 7.3623 42.6855 7.3623H44.3994C44.4482 7.44043 44.4922 7.48926 44.5312 7.50879C44.5801 7.51855 44.6387 7.52344 44.707 7.52344C44.8438 7.52344 44.9756 7.49902 45.1025 7.4502C45.2295 7.3916 45.3662 7.3623 45.5127 7.3623C45.6104 7.3623 45.7227 7.38672 45.8496 7.43555C45.9863 7.48438 46.1279 7.54297 46.2744 7.61133C46.4209 7.66992 46.5674 7.72363 46.7139 7.77246C46.8604 7.82129 46.9922 7.8457 47.1094 7.8457C47.2266 7.8457 47.3633 7.81152 47.5195 7.74316C47.6758 7.66504 47.8467 7.62598 48.0322 7.62598H48.1494C48.1787 7.63574 48.208 7.66992 48.2373 7.72852C48.2666 7.77734 48.2812 7.80664 48.2812 7.81641V11.9766C48.2812 12.1328 48.2568 12.2646 48.208 12.3721C48.1592 12.4795 48.0469 12.5332 47.8711 12.5332C47.8125 12.5332 47.749 12.4648 47.6807 12.3281C47.6123 12.1914 47.5439 12.0352 47.4756 11.8594C47.4072 11.6836 47.3438 11.5127 47.2852 11.3467C47.2363 11.1709 47.2021 11.0439 47.1826 10.9658C47.1729 10.9463 47.1533 10.8975 47.124 10.8193C47.1045 10.7412 47.0801 10.6582 47.0508 10.5703C47.0215 10.4824 46.9971 10.3994 46.9775 10.3213C46.958 10.2432 46.9434 10.1943 46.9336 10.1748C46.9238 10.1748 46.8799 10.126 46.8018 10.0283C46.7236 9.93066 46.6309 9.81836 46.5234 9.69141C46.4258 9.55469 46.3184 9.42285 46.2012 9.2959C46.0938 9.15918 46.001 9.04688 45.9229 8.95898C45.9033 8.91992 45.8643 8.87598 45.8057 8.82715C45.7568 8.76855 45.7178 8.73926 45.6885 8.73926C45.6494 8.71973 45.5762 8.68555 45.4688 8.63672C45.3711 8.57812 45.2637 8.51953 45.1465 8.46094C45.0293 8.40234 44.917 8.34863 44.8096 8.2998C44.7119 8.24121 44.6436 8.20215 44.6045 8.18262H44.4287H44.2529C44.1846 8.18262 44.082 8.1875 43.9453 8.19727C43.8086 8.20703 43.6719 8.2168 43.5352 8.22656C43.3984 8.23633 43.2715 8.25098 43.1543 8.27051C43.0371 8.28027 42.9639 8.29004 42.9346 8.2998C42.8662 8.2998 42.7734 8.31445 42.6562 8.34375C42.5488 8.36328 42.4951 8.38281 42.4951 8.40234C42.4756 8.40234 42.4414 8.46094 42.3926 8.57812C42.3535 8.68555 42.3145 8.77344 42.2754 8.8418C42.2559 8.85156 42.2314 8.88574 42.2021 8.94434C42.1826 8.99316 42.1582 9.05176 42.1289 9.12012C42.1094 9.17871 42.0898 9.2373 42.0703 9.2959C42.0508 9.35449 42.041 9.39355 42.041 9.41309C41.9629 9.5498 41.8799 9.65723 41.792 9.73535C41.7041 9.81348 41.6357 9.9209 41.5869 10.0576C41.5771 10.0869 41.5674 10.1309 41.5576 10.1895C41.5576 10.2383 41.5479 10.292 41.5283 10.3506C41.5186 10.4092 41.499 10.4678 41.4697 10.5264C41.4502 10.5752 41.4209 10.6094 41.3818 10.6289C41.2549 11.0586 41.1768 11.4639 41.1475 11.8447C41.1182 12.2256 41.1035 12.626 41.1035 13.0459V13.4707C41.1035 13.5195 41.1035 13.6172 41.1035 13.7637C41.1035 13.9004 41.1035 14.0518 41.1035 14.2178C41.1035 14.374 41.1035 14.5303 41.1035 14.6865C41.1133 14.833 41.123 14.9355 41.1328 14.9941C41.2109 15.0918 41.2598 15.1943 41.2793 15.3018C41.3086 15.3994 41.3232 15.5068 41.3232 15.624C41.333 15.7314 41.3379 15.8438 41.3379 15.9609C41.3379 16.0781 41.3525 16.1953 41.3818 16.3125C41.3818 16.332 41.3965 16.3516 41.4258 16.3711C41.4551 16.3809 41.4697 16.3955 41.4697 16.415C41.4697 16.4443 41.4844 16.498 41.5137 16.5762C41.5527 16.6543 41.5918 16.7373 41.6309 16.8252C41.6797 16.9131 41.7188 16.9961 41.748 17.0742C41.7871 17.1523 41.8115 17.1963 41.8213 17.2061C41.8213 17.2158 41.8311 17.2354 41.8506 17.2646C41.8799 17.2842 41.8945 17.3037 41.8945 17.3232C41.9922 17.4307 42.0703 17.5234 42.1289 17.6016C42.1875 17.6797 42.2412 17.7578 42.29 17.8359C42.3389 17.9043 42.3828 17.9775 42.4219 18.0557C42.4707 18.1338 42.5244 18.2217 42.583 18.3193C42.6709 18.4561 42.8174 18.5928 43.0225 18.7295C43.2373 18.8662 43.4668 18.9883 43.7109 19.0957C43.9648 19.1934 44.2139 19.2764 44.458 19.3447C44.7021 19.4033 44.9023 19.4326 45.0586 19.4326H45.1318C45.1807 19.4326 45.249 19.4229 45.3369 19.4033C45.4346 19.374 45.4932 19.3496 45.5127 19.3301C45.5127 19.3008 45.5566 19.2422 45.6445 19.1543C45.7422 19.0664 45.8008 19.0127 45.8203 18.9932C45.8887 18.9346 45.9668 18.8955 46.0547 18.876C46.1523 18.8467 46.2451 18.8174 46.333 18.7881C46.4307 18.7588 46.5186 18.7295 46.5967 18.7002C46.6846 18.6611 46.7578 18.6074 46.8164 18.5391C46.8262 18.5293 46.8457 18.4902 46.875 18.4219C46.9141 18.3535 46.9531 18.2803 46.9922 18.2021C47.0312 18.124 47.0654 18.0508 47.0947 17.9824C47.1338 17.9141 47.1631 17.8701 47.1826 17.8506C47.2021 17.8311 47.251 17.7822 47.3291 17.7041C47.4072 17.6162 47.4951 17.5283 47.5928 17.4404C47.6904 17.3428 47.7783 17.25 47.8564 17.1621C47.9443 17.0742 48.0078 17.0107 48.0469 16.9717H48.1494C48.2666 16.9717 48.335 17.0107 48.3545 17.0889C48.374 17.1572 48.3838 17.2451 48.3838 17.3525C48.3838 17.6064 48.3643 17.8652 48.3252 18.1289C48.2861 18.3828 48.2275 18.6318 48.1494 18.876C47.8564 19.1982 47.5781 19.4912 47.3145 19.7549C47.0508 20.0186 46.7725 20.2432 46.4795 20.4287C46.1865 20.6045 45.8643 20.7461 45.5127 20.8535C45.1709 20.9512 44.7656 21 44.2969 21C43.8281 21 43.3789 20.9707 42.9492 20.9121C42.5195 20.8438 42.1094 20.7363 41.7188 20.5898C41.3379 20.4336 40.9766 20.2285 40.6348 19.9746C40.293 19.7109 39.9756 19.3838 39.6826 18.9932C39.3994 18.6025 39.165 18.2363 38.9795 17.8945C38.7939 17.543 38.6182 17.1328 38.4521 16.6641C38.4326 16.5859 38.4082 16.5078 38.3789 16.4297C38.3594 16.3418 38.3398 16.2441 38.3203 16.1367C38.3008 16.0195 38.2812 15.8828 38.2617 15.7266C38.252 15.5703 38.2471 15.375 38.2471 15.1406V13.4268C38.2666 13.4072 38.2861 13.3682 38.3057 13.3096C38.3252 13.2412 38.3447 13.1924 38.3643 13.1631ZM53.3203 13.6758V14.9648C53.3203 15.1016 53.3252 15.2773 53.335 15.4922C53.3447 15.707 53.3643 15.9365 53.3936 16.1807C53.4229 16.415 53.4668 16.6445 53.5254 16.8691C53.584 17.0938 53.667 17.2793 53.7744 17.4258C53.7842 17.4453 53.8135 17.4795 53.8623 17.5283C53.9209 17.5771 53.9795 17.6357 54.0381 17.7041C54.1064 17.7627 54.165 17.8213 54.2139 17.8799C54.2725 17.9287 54.3066 17.9629 54.3164 17.9824C54.4629 18.1484 54.5996 18.2998 54.7266 18.4365C54.8535 18.5635 54.9805 18.6904 55.1074 18.8174C55.2344 18.9346 55.3662 19.0566 55.5029 19.1836C55.6494 19.3008 55.8105 19.4229 55.9863 19.5498C56.0254 19.5791 56.0791 19.623 56.1475 19.6816C56.2158 19.7305 56.2842 19.7793 56.3525 19.8281C56.4307 19.8672 56.4941 19.9062 56.543 19.9453C56.6016 19.9746 56.6357 19.9893 56.6455 19.9893H56.792H57.0996C57.1191 19.9893 57.1777 20.0088 57.2754 20.0479C57.3828 20.0869 57.4414 20.1064 57.4512 20.1064H57.5537H57.6562C57.666 20.1064 57.6953 20.1016 57.7441 20.0918C57.793 20.082 57.8418 20.0723 57.8906 20.0625C57.9395 20.043 57.9834 20.0283 58.0225 20.0186C58.0713 19.999 58.1006 19.9893 58.1104 19.9893C58.2275 19.9697 58.3252 19.96 58.4033 19.96C58.4814 19.9502 58.5547 19.9404 58.623 19.9307C58.6914 19.9111 58.7598 19.8916 58.8281 19.8721C58.9062 19.8428 59.0039 19.8037 59.1211 19.7549C59.5312 19.5889 59.8535 19.3887 60.0879 19.1543C60.332 18.9199 60.5713 18.6074 60.8057 18.2168C60.8057 18.1973 60.8203 18.1387 60.8496 18.041C60.8887 17.9434 60.9082 17.8799 60.9082 17.8506C60.9082 17.8506 60.9229 17.8359 60.9521 17.8066C60.9912 17.7773 61.0303 17.748 61.0693 17.7188C61.1084 17.6797 61.1426 17.6455 61.1719 17.6162C61.2109 17.5869 61.2305 17.5674 61.2305 17.5576C61.3379 17.4209 61.4209 17.2354 61.4795 17.001C61.5381 16.7568 61.6064 16.5518 61.6846 16.3857L61.9189 16.1074V15.6533C61.9189 15.6338 61.9287 15.585 61.9482 15.5068C61.9775 15.4189 61.9922 15.3506 61.9922 15.3018C61.9922 15.2822 61.9824 15.248 61.9629 15.1992C61.9531 15.1406 61.9336 15.082 61.9043 15.0234C61.8848 14.9551 61.8604 14.8965 61.8311 14.8477C61.8115 14.7891 61.7969 14.7549 61.7871 14.7451C61.7871 14.7061 61.7822 14.6133 61.7725 14.4668C61.7627 14.3105 61.7529 14.1445 61.7432 13.9688C61.7334 13.793 61.7236 13.627 61.7139 13.4707C61.7041 13.3145 61.6943 13.2119 61.6846 13.1631C61.6846 13.1436 61.6699 13.1045 61.6406 13.0459C61.6211 12.9775 61.5967 12.9092 61.5674 12.8408C61.5479 12.7627 61.5234 12.6943 61.4941 12.6357C61.4746 12.5674 61.4648 12.5234 61.4648 12.5039C61.4551 12.4844 61.4404 12.4258 61.4209 12.3281C61.4014 12.2305 61.377 12.123 61.3477 12.0059C61.3281 11.8887 61.3037 11.7812 61.2744 11.6836C61.2549 11.5762 61.2402 11.5127 61.2305 11.4932C61.2305 11.4834 61.2158 11.4541 61.1865 11.4053C61.167 11.3467 61.1475 11.3076 61.1279 11.2881C61.1182 11.2686 61.0791 11.2295 61.0107 11.1709C60.9521 11.1025 60.8838 11.0342 60.8057 10.9658C60.7275 10.8877 60.6543 10.8193 60.5859 10.7607C60.5176 10.6924 60.4785 10.6484 60.4688 10.6289C60.4395 10.5898 60.415 10.5508 60.3955 10.5117C60.3564 10.4336 60.3369 10.3896 60.3369 10.3799C60.2979 10.3408 60.2441 10.2822 60.1758 10.2041C60.1074 10.1162 60.0342 10.0234 59.9561 9.92578C59.8877 9.82812 59.8242 9.74023 59.7656 9.66211C59.707 9.58398 59.6729 9.53027 59.6631 9.50098C59.5166 9.3252 59.3457 9.18359 59.1504 9.07617C58.9551 8.96875 58.75 8.88086 58.5352 8.8125C58.3301 8.74414 58.1152 8.7002 57.8906 8.68066C57.666 8.65137 57.4512 8.63672 57.2461 8.63672C56.9629 8.63672 56.7383 8.66113 56.5723 8.70996C56.416 8.75879 56.2793 8.82715 56.1621 8.91504C56.0449 8.99316 55.9277 9.08594 55.8105 9.19336C55.6934 9.29102 55.542 9.39355 55.3564 9.50098C55.249 9.55957 55.1221 9.61816 54.9756 9.67676C54.8389 9.72559 54.7363 9.80859 54.668 9.92578C54.6582 9.93555 54.6484 9.96484 54.6387 10.0137C54.6289 10.0625 54.6191 10.1162 54.6094 10.1748C54.5996 10.2236 54.585 10.2725 54.5654 10.3213C54.5557 10.3604 54.5459 10.3799 54.5361 10.3799C54.5264 10.3994 54.5068 10.4336 54.4775 10.4824C54.4482 10.5312 54.4141 10.5801 54.375 10.6289C54.3457 10.6777 54.3164 10.7266 54.2871 10.7754C54.2578 10.8145 54.2432 10.834 54.2432 10.834C54.2236 10.8633 54.1943 10.917 54.1553 10.9951C54.1162 11.0732 54.0771 11.1562 54.0381 11.2441C53.999 11.332 53.96 11.415 53.9209 11.4932C53.8916 11.5713 53.8721 11.6152 53.8623 11.625L53.7744 11.7568C53.7744 11.7666 53.7695 11.7959 53.7598 11.8447C53.75 11.8838 53.7402 11.9277 53.7305 11.9766C53.7207 12.0156 53.7061 12.0596 53.6865 12.1084C53.6768 12.1475 53.667 12.1719 53.6572 12.1816C53.6475 12.2109 53.6279 12.25 53.5986 12.2988C53.5693 12.3379 53.5352 12.4111 53.4961 12.5186C53.457 12.626 53.418 12.7725 53.3789 12.958C53.3496 13.1436 53.3301 13.3828 53.3203 13.6758ZM51.0938 14.7451V12.7676C51.1328 12.5332 51.1816 12.2793 51.2402 12.0059C51.3086 11.7324 51.3867 11.4639 51.4746 11.2002C51.5625 10.9268 51.665 10.668 51.7822 10.4238C51.8994 10.1699 52.0312 9.94531 52.1777 9.75C52.2266 9.71094 52.2705 9.66211 52.3096 9.60352C52.3584 9.53516 52.3926 9.50098 52.4121 9.50098C52.4316 9.49121 52.4756 9.47168 52.5439 9.44238C52.6123 9.41309 52.6855 9.38379 52.7637 9.35449C52.8516 9.31543 52.9248 9.28125 52.9834 9.25195C53.0518 9.21289 53.0908 9.18359 53.1006 9.16406C53.1592 9.125 53.2373 9.06152 53.335 8.97363C53.4424 8.88574 53.5498 8.79297 53.6572 8.69531C53.7744 8.59766 53.8867 8.50488 53.9941 8.41699C54.1016 8.31934 54.1846 8.24121 54.2432 8.18262L55.1953 8.00684C55.3223 7.87988 55.5225 7.76758 55.7959 7.66992C56.0791 7.57227 56.377 7.49414 56.6895 7.43555C57.0117 7.36719 57.3145 7.31836 57.5977 7.28906C57.8906 7.25977 58.1152 7.24512 58.2715 7.24512H58.7695C58.7988 7.25488 58.8525 7.26953 58.9307 7.28906C59.0088 7.29883 59.0918 7.30859 59.1797 7.31836C59.2676 7.32812 59.3506 7.33789 59.4287 7.34766C59.5068 7.35742 59.5605 7.3623 59.5898 7.3623H60.1465C60.3027 7.40137 60.4639 7.47949 60.6299 7.59668C60.8057 7.7041 60.9717 7.82617 61.1279 7.96289C61.2939 8.09961 61.4502 8.23633 61.5967 8.37305C61.7432 8.50977 61.875 8.62207 61.9922 8.70996C62.041 8.72949 62.124 8.76855 62.2412 8.82715C62.3682 8.87598 62.4463 8.91504 62.4756 8.94434C62.5537 8.99316 62.6221 9.05664 62.6807 9.13477C62.7393 9.21289 62.793 9.2959 62.8418 9.38379C62.9004 9.46191 62.9541 9.54004 63.0029 9.61816C63.0518 9.69629 63.1055 9.76465 63.1641 9.82324C63.1641 9.85254 63.1787 9.87207 63.208 9.88184C63.2178 9.90137 63.2324 9.91602 63.252 9.92578C63.291 9.98438 63.3447 10.0674 63.4131 10.1748C63.4912 10.2822 63.5645 10.3896 63.6328 10.4971C63.7109 10.6045 63.7744 10.7021 63.8232 10.79C63.8818 10.8779 63.9111 10.9365 63.9111 10.9658C64.0479 11.1904 64.1504 11.4785 64.2188 11.8301C64.2871 12.1816 64.3359 12.5479 64.3652 12.9287C64.3945 13.3096 64.4092 13.6855 64.4092 14.0566C64.4189 14.418 64.4238 14.7305 64.4238 14.9941C64.4238 15.0234 64.4189 15.0869 64.4092 15.1846C64.4092 15.2725 64.4043 15.3701 64.3945 15.4775C64.3945 15.585 64.3896 15.6875 64.3799 15.7852C64.3799 15.873 64.3799 15.9316 64.3799 15.9609C64.165 16.332 63.9893 16.6934 63.8525 17.0449C63.7256 17.3867 63.584 17.7139 63.4277 18.0264C63.2812 18.3389 63.1006 18.6416 62.8857 18.9346C62.6709 19.2178 62.373 19.4912 61.9922 19.7549C61.9434 19.8037 61.8652 19.8672 61.7578 19.9453C61.6602 20.0234 61.5576 20.1016 61.4502 20.1797C61.3525 20.248 61.2646 20.3115 61.1865 20.3701C61.1084 20.4189 61.0645 20.4434 61.0547 20.4434C60.9473 20.4922 60.8008 20.5508 60.6152 20.6191C60.4297 20.6777 60.2393 20.7363 60.0439 20.7949C59.8584 20.8535 59.6826 20.9023 59.5166 20.9414C59.3604 20.9805 59.2627 21 59.2236 21C58.9404 21.0488 58.6621 21.083 58.3887 21.1025C58.1152 21.1318 57.8467 21.1465 57.583 21.1465C57.2705 21.1465 56.9629 21.1318 56.6602 21.1025C56.3672 21.083 56.0742 21.0488 55.7812 21C55.7617 21 55.6934 20.9854 55.5762 20.9561C55.4688 20.9268 55.3955 20.8975 55.3564 20.8682C55.3076 20.8682 55.2441 20.8584 55.166 20.8389C55.0977 20.8096 55.0244 20.7852 54.9463 20.7656C54.8779 20.7363 54.8145 20.7119 54.7559 20.6924C54.707 20.6729 54.6777 20.6582 54.668 20.6484C54.6582 20.6484 54.6338 20.6338 54.5947 20.6045C54.5654 20.5752 54.5264 20.5459 54.4775 20.5166C54.4385 20.4775 54.3994 20.4434 54.3604 20.4141C54.3311 20.375 54.3164 20.3506 54.3164 20.3408C54.3066 20.3311 54.2725 20.3164 54.2139 20.2969C54.165 20.2773 54.1064 20.2529 54.0381 20.2236C53.9795 20.1943 53.9209 20.1699 53.8623 20.1504C53.8135 20.1309 53.7842 20.1162 53.7744 20.1064C53.5205 19.9404 53.2764 19.7451 53.042 19.5205C52.8174 19.2861 52.6074 19.0371 52.4121 18.7734C52.2168 18.5098 52.0459 18.2412 51.8994 17.9678C51.7529 17.6846 51.6357 17.4014 51.5479 17.1182C51.5088 17.001 51.4795 16.9033 51.46 16.8252C51.4502 16.7373 51.4355 16.6543 51.416 16.5762C51.4062 16.4883 51.3916 16.4004 51.3721 16.3125C51.3623 16.2148 51.3379 16.0977 51.2988 15.9609C51.2793 15.9023 51.2646 15.8535 51.2549 15.8145C51.2354 15.7168 51.2256 15.6631 51.2256 15.6533C51.1963 15.5654 51.1768 15.4238 51.167 15.2285C51.167 15.0332 51.1426 14.8721 51.0938 14.7451ZM72.7295 20.5898V20.6484C72.5928 20.8242 72.4609 20.9463 72.334 21.0146C72.207 21.0928 72.0312 21.1318 71.8066 21.1318C71.7969 21.1318 71.7773 21.1221 71.748 21.1025C71.7285 21.083 71.709 21.0732 71.6895 21.0732C71.6602 21.0732 71.5869 21.0635 71.4697 21.0439C71.3623 21.0342 71.2891 21.0195 71.25 21C70.6738 21.0195 70.127 21.0342 69.6094 21.0439C69.1016 21.0635 68.5693 21.0732 68.0127 21.0732C67.9346 21.0732 67.8516 21.0781 67.7637 21.0879C67.6758 21.0977 67.5781 21.1025 67.4707 21.1025C67.2559 21.1025 67.0654 21.0781 66.8994 21.0293C66.7822 21 66.6602 20.9561 66.5332 20.8975C66.416 20.8291 66.3574 20.7266 66.3574 20.5898C66.3574 20.5117 66.3623 20.4385 66.3721 20.3701C66.3916 20.3018 66.4453 20.2334 66.5332 20.165C66.6309 20.126 66.7627 20.082 66.9287 20.0332C67.1045 19.9746 67.2363 19.9355 67.3242 19.916C67.3535 19.9062 67.4023 19.8916 67.4707 19.8721C67.5391 19.8525 67.6074 19.833 67.6758 19.8135C67.7539 19.7939 67.8223 19.7744 67.8809 19.7549C67.9395 19.7354 67.9834 19.7207 68.0127 19.7109C68.0908 19.6621 68.1738 19.5986 68.2617 19.5205C68.3496 19.4326 68.418 19.335 68.4668 19.2275C68.5449 19.0908 68.5986 18.9395 68.6279 18.7734C68.6572 18.6074 68.6719 18.4365 68.6719 18.2607C68.6719 18.1533 68.6768 18.0508 68.6865 17.9531C68.6963 17.8457 68.7012 17.7383 68.7012 17.6309C68.7012 17.5234 68.7012 17.4258 68.7012 17.3379C68.7109 17.25 68.7256 17.1621 68.7451 17.0742C68.7451 17.0449 68.7549 16.9814 68.7744 16.8838C68.8037 16.7861 68.833 16.6836 68.8623 16.5762C68.9014 16.459 68.9355 16.3516 68.9648 16.2539C68.9941 16.1562 69.0137 16.0977 69.0234 16.0781V16.0342V15.8291C69.0332 15.8193 69.043 15.79 69.0527 15.7412C69.0625 15.6924 69.0723 15.6387 69.082 15.5801C69.1016 15.5117 69.1162 15.4482 69.126 15.3896C69.1455 15.3311 69.1602 15.292 69.1699 15.2725C69.1699 15.2529 69.1602 15.1895 69.1406 15.082C69.1309 14.9648 69.126 14.8867 69.126 14.8477V14.6865C69.126 14.0127 69.165 13.334 69.2432 12.6504C69.3311 11.957 69.375 11.2588 69.375 10.5557V10.0576C69.375 10.0283 69.3701 9.98926 69.3604 9.94043C69.3506 9.8916 69.3359 9.84277 69.3164 9.79395L69.2578 9.61816L67.9102 8.25586C67.8418 8.19727 67.7441 8.14844 67.6172 8.10938C67.4902 8.07031 67.3633 8.02637 67.2363 7.97754C67.1094 7.92871 66.9971 7.87012 66.8994 7.80176C66.8115 7.7334 66.7676 7.63086 66.7676 7.49414C66.7676 7.35742 66.8164 7.26465 66.9141 7.21582C67.0117 7.16699 67.124 7.14258 67.251 7.14258H69.7852C70 7.14258 70.2051 7.21094 70.4004 7.34766C70.5957 7.47461 70.7764 7.63086 70.9424 7.81641C71.1084 8.00195 71.2646 8.19727 71.4111 8.40234C71.5576 8.60742 71.6895 8.77832 71.8066 8.91504C71.8262 8.94434 71.875 9.00781 71.9531 9.10547C72.0312 9.19336 72.1143 9.29102 72.2021 9.39844C72.2998 9.49609 72.3828 9.58887 72.4512 9.67676C72.5293 9.75488 72.5781 9.80371 72.5977 9.82324C72.6172 9.84277 72.6562 9.89648 72.7148 9.98438C72.7832 10.0723 72.8516 10.1699 72.9199 10.2773C72.998 10.375 73.0664 10.4727 73.125 10.5703C73.1934 10.6582 73.2373 10.707 73.2568 10.7168C73.2666 10.7168 73.2861 10.7363 73.3154 10.7754C73.3545 10.8047 73.3936 10.8389 73.4326 10.8779C73.4717 10.9072 73.5059 10.9414 73.5352 10.9805C73.5742 11.0098 73.5986 11.0293 73.6084 11.0391C73.6768 11.1465 73.7256 11.249 73.7549 11.3467C73.7939 11.4443 73.833 11.5322 73.8721 11.6104C73.9111 11.6787 73.96 11.7422 74.0186 11.8008C74.0869 11.8594 74.1797 11.9082 74.2969 11.9473C74.9121 12.5234 75.498 13.1289 76.0547 13.7637C76.6113 14.3887 77.207 14.9697 77.8418 15.5068C77.959 15.4287 78.0469 15.3408 78.1055 15.2432C78.1641 15.1357 78.2129 15.0234 78.252 14.9062C78.291 14.7891 78.3203 14.667 78.3398 14.54C78.3691 14.4131 78.3984 14.2861 78.4277 14.1592C78.5059 13.7881 78.5742 13.4316 78.6328 13.0898C78.7012 12.748 78.7354 12.3672 78.7354 11.9473C78.7354 11.8008 78.7305 11.6055 78.7207 11.3613C78.7207 11.1074 78.7109 10.8486 78.6914 10.585C78.6719 10.3115 78.6426 10.0527 78.6035 9.80859C78.5645 9.56445 78.5059 9.38379 78.4277 9.2666C78.3984 9.2373 78.3594 9.19336 78.3105 9.13477C78.2715 9.07617 78.2275 9.01758 78.1787 8.95898C78.1396 8.90039 78.1006 8.84668 78.0615 8.79785C78.0225 8.74902 77.9932 8.71973 77.9736 8.70996C77.8955 8.62207 77.7246 8.54395 77.4609 8.47559C77.207 8.39746 76.9385 8.31445 76.6553 8.22656C76.3818 8.13867 76.1328 8.0459 75.9082 7.94824C75.6934 7.85059 75.5859 7.7334 75.5859 7.59668C75.5859 7.56738 75.5859 7.5332 75.5859 7.49414C75.5859 7.45508 75.5957 7.43066 75.6152 7.4209C75.6543 7.28418 75.7129 7.18652 75.791 7.12793C75.8789 7.06934 76.0059 7.04004 76.1719 7.04004H76.4941C76.8945 7.04004 77.2852 7.03027 77.666 7.01074C78.0469 6.99121 78.4277 6.98145 78.8086 6.98145C78.9746 6.98145 79.126 6.99121 79.2627 7.01074C79.3994 7.03027 79.541 7.04004 79.6875 7.04004C79.9805 7.04004 80.2734 7.02051 80.5664 6.98145C80.8594 6.93262 81.1523 6.9082 81.4453 6.9082C81.6406 6.9082 81.8018 6.95703 81.9287 7.05469C82.0557 7.14258 82.1191 7.28906 82.1191 7.49414C82.1191 7.58203 82.0801 7.66016 82.002 7.72852C81.9336 7.78711 81.8506 7.84082 81.7529 7.88965C81.6553 7.92871 81.5527 7.96289 81.4453 7.99219C81.3477 8.01172 81.2695 8.02148 81.2109 8.02148C81.1621 8.04102 81.0791 8.06543 80.9619 8.09473C80.8447 8.11426 80.7178 8.13867 80.5811 8.16797C80.4541 8.1875 80.3271 8.20703 80.2002 8.22656C80.083 8.24609 80.0049 8.25586 79.9658 8.25586C79.79 8.41211 79.6826 8.57812 79.6436 8.75391C79.6143 8.91992 79.5801 9.11523 79.541 9.33984C79.541 9.35938 79.5361 9.39355 79.5264 9.44238C79.5166 9.49121 79.502 9.54492 79.4824 9.60352C79.4727 9.65234 79.458 9.70117 79.4385 9.75C79.4287 9.78906 79.4141 9.81348 79.3945 9.82324V9.85254V9.92578C79.4043 9.99414 79.4141 10.1309 79.4238 10.3359C79.4434 10.5312 79.458 10.7656 79.4678 11.0391C79.4775 11.3027 79.4873 11.5859 79.4971 11.8887C79.5068 12.1914 79.5117 12.4795 79.5117 12.7529C79.5215 13.0166 79.5264 13.251 79.5264 13.4561C79.5361 13.6514 79.541 13.7832 79.541 13.8516V14.0127C79.541 14.4229 79.502 14.8184 79.4238 15.1992C79.3457 15.5801 79.3066 15.9756 79.3066 16.3857C79.3066 17.0498 79.3506 17.709 79.4385 18.3633C79.5361 19.0078 79.585 19.667 79.585 20.3408C79.585 20.3701 79.5801 20.4189 79.5703 20.4873C79.5703 20.5459 79.5654 20.6143 79.5557 20.6924C79.5557 20.7607 79.5508 20.8242 79.541 20.8828C79.541 20.9414 79.541 20.9805 79.541 21C79.4531 21.0684 79.3652 21.1074 79.2773 21.1172C79.1992 21.127 79.1162 21.1318 79.0283 21.1318C78.9209 21.1318 78.8184 21.127 78.7207 21.1172C78.6328 21.1074 78.5352 21.0684 78.4277 21C78.3203 20.9414 78.2178 20.8535 78.1201 20.7363C78.0322 20.6191 77.9492 20.4971 77.8711 20.3701C77.8027 20.2334 77.7393 20.1016 77.6807 19.9746C77.6221 19.8477 77.5684 19.75 77.5195 19.6816C77.3242 19.3496 77.0703 19.0518 76.7578 18.7881C76.4551 18.5146 76.1816 18.2363 75.9375 17.9531C75.918 17.9238 75.9033 17.8945 75.8936 17.8652C75.874 17.8066 75.8643 17.7725 75.8643 17.7627C75.835 17.7334 75.7764 17.6748 75.6885 17.5869C75.6104 17.499 75.5273 17.4062 75.4395 17.3086C75.3516 17.2012 75.2686 17.1035 75.1904 17.0156C75.1123 16.9277 75.0684 16.8691 75.0586 16.8398C75.0488 16.8398 75.0342 16.8203 75.0146 16.7812C74.9951 16.7324 74.9707 16.6836 74.9414 16.6348C74.9219 16.5762 74.9023 16.5273 74.8828 16.4883C74.8633 16.4395 74.8535 16.4053 74.8535 16.3857C74.6973 16.1904 74.5312 16 74.3555 15.8145C74.1895 15.6191 74.0088 15.4385 73.8135 15.2725C73.8037 15.2627 73.7744 15.248 73.7256 15.2285C73.6865 15.1992 73.6426 15.1699 73.5938 15.1406C73.5449 15.1016 73.4961 15.0674 73.4473 15.0381C73.4082 14.999 73.3887 14.9697 73.3887 14.9502C73.2227 14.833 73.0713 14.6963 72.9346 14.54C72.8076 14.3838 72.6807 14.2227 72.5537 14.0566C72.4365 13.8906 72.3145 13.7246 72.1875 13.5586C72.0703 13.3828 71.9434 13.2217 71.8066 13.0752C71.7676 13.0264 71.6943 12.9482 71.5869 12.8408C71.4893 12.7334 71.3818 12.6211 71.2646 12.5039C71.1475 12.3867 71.0303 12.2744 70.9131 12.167C70.8057 12.0596 70.7324 11.9863 70.6934 11.9473C70.6934 11.918 70.6738 11.9033 70.6348 11.9033H70.5908C70.4639 11.9033 70.3857 11.9131 70.3564 11.9326C70.3369 11.9521 70.2881 12.0205 70.21 12.1377C70.1904 12.1963 70.1709 12.25 70.1514 12.2988C70.1416 12.3477 70.127 12.416 70.1074 12.5039C70.0977 12.582 70.0732 12.7236 70.0342 12.9287C70.0049 13.124 69.9658 13.29 69.917 13.4268V13.4707C69.917 13.5195 69.917 13.5928 69.917 13.6904C69.9268 13.7783 69.9316 13.8662 69.9316 13.9541C69.9316 14.2178 69.917 14.4912 69.8877 14.7744C69.8682 15.0479 69.8584 15.3262 69.8584 15.6094V15.7559C69.8779 15.7754 69.8926 15.834 69.9023 15.9316C69.9219 16.0195 69.9316 16.0684 69.9316 16.0781V17.3965C69.9414 17.4746 69.9561 17.6016 69.9756 17.7773C69.9951 17.9531 70.0146 18.1387 70.0342 18.334C70.0537 18.5195 70.0684 18.7002 70.0781 18.876C70.0977 19.042 70.1074 19.1592 70.1074 19.2275C70.2246 19.3838 70.3857 19.5205 70.5908 19.6377C70.7959 19.7549 70.9814 19.8379 71.1475 19.8867H71.6016C71.6797 19.8965 71.7822 19.916 71.9092 19.9453C72.0361 19.9746 72.1582 20.0186 72.2754 20.0771C72.4023 20.126 72.5098 20.1943 72.5977 20.2822C72.6855 20.3701 72.7295 20.4727 72.7295 20.5898Z" fill="#D7D1D1"/>
</svg>
