<svg width="200" height="200" viewBox="0 0 200 200" fill="none" xmlns="http://www.w3.org/2000/svg">
<g clip-path="url(#clip0_211_23)">
<path d="M99.8857 200C44.0402 198.927 0.3905 153.148 0 99.8857C1.08583 44.0818 46.6215 0.3905 99.8857 0C155.693 1.11567 199.609 46.5497 200 99.8857C198.897 155.734 153.22 199.609 99.8857 200ZM99.8857 7.08567C48.0327 8.10667 7.21783 50.372 6.85717 99.8857C7.86567 151.78 50.3742 192.554 99.8857 192.914C151.78 191.905 192.553 149.397 192.914 99.8857C191.935 47.9945 149.326 7.446 99.8857 7.08567V7.08567ZM75.8857 181.714L101.486 108.114L128.228 180.114C110.211 186.146 93.178 186.511 75.8857 181.714ZM56.2285 51.6572C46.8568 52.9312 37.7425 53.3853 28.8 53.0287C45.7795 28.7535 72.966 15.0965 99.8857 14.8572C121.904 15.2738 142.431 23.5968 157.486 37.2572C150.504 36.741 146.323 39.8032 143.314 45.0285C138.942 58.5183 148.181 68.504 153.372 78.6287C158.279 87.8795 157.89 98.3983 155.2 107.429L142.4 151.086L111.543 59.4285C114.758 59.1293 117.994 59.033 120.915 58.5142C124.371 57.7447 125.129 54.5285 122.743 52.5713C121.981 51.962 121.143 51.6573 120.229 51.6573L101.715 53.0288H87.6573C83.6885 53.2632 72.4818 49.4293 71.5427 54.629C71.0575 56.6318 72.5527 58.2017 74.2855 58.5145C77.3432 58.9107 80.8463 59.3605 83.657 59.6573L97.1427 95.7717L78.4 151.086L47.3143 59.4285C50.6037 59.1428 53.9365 59.0432 56.9143 58.5142C59.3527 58.2087 60.419 56.9898 60.1143 54.857C59.6822 52.9608 57.992 51.6797 56.2285 51.6572V51.6572ZM21.9428 65.8287L62.8572 176.457C48.0943 169.181 36.4228 158.48 28.1142 145.714C12.915 121.459 11.3162 90.6868 21.9428 65.8287V65.8287ZM181.829 122.629C175.112 144.563 161.393 162.731 142.4 173.714C143.314 171.276 144.762 167.162 146.743 161.371L170.515 92.3427C172.8 85.6378 174.4 78.1713 175.315 69.9428C175.623 66.5763 175.634 63.1822 175.086 60.1142C184.826 81.1213 187.589 101.93 181.829 122.629V122.629Z" fill="#7165FD"/>
</g>
<defs>
<clipPath id="clip0_211_23">
<rect width="200" height="200" fill="white"/>
</clipPath>
</defs>
</svg>
